<svg width="64" height="64" viewBox="0 0 64 64" fill="none" xmlns="http://www.w3.org/2000/svg">
<path d="M32 5.33334C21.68 5.33334 13.3334 13.68 13.3334 24V53.3333C13.3334 54.8 14.5334 56 16 56C17.0667 56 18.0267 55.44 18.4534 54.5067L21.3334 48L24.2134 54.5067C24.64 55.44 25.6 56 26.6667 56C27.7334 56 28.6934 55.44 29.12 54.5067L32 48L34.88 54.5067C35.3067 55.44 36.2667 56 37.3334 56C38.4 56 39.36 55.44 39.7867 54.5067L42.6667 48L45.5467 54.5067C45.9734 55.44 46.9334 56 48 56C49.4667 56 50.6667 54.8 50.6667 53.3333V24C50.6667 13.68 42.32 5.33334 32 5.33334ZM26.6667 26.6667C25.2 26.6667 24 25.4667 24 24C24 22.5333 25.2 21.3333 26.6667 21.3333C28.1334 21.3333 29.3334 22.5333 29.3334 24C29.3334 25.4667 28.1334 26.6667 26.6667 26.6667ZM37.3334 26.6667C35.8667 26.6667 34.6667 25.4667 34.6667 24C34.6667 22.5333 35.8667 21.3333 37.3334 21.3333C38.8 21.3333 40 22.5333 40 24C40 25.4667 38.8 26.6667 37.3334 26.6667Z" fill="#8C8D8B"/>
</svg>
